<svg width="189" height="90" viewBox="0 0 189 90" fill="none" xmlns="http://www.w3.org/2000/svg">
<path d="M6.59094 0.818L10.0549 8.729L13.6009 0.818H19.3839L12.7019 13.776V20.186H7.40994V13.721L0.835938 0.820999L6.59094 0.818ZM25.0039 20.459C23.7313 20.459 22.6036 20.2623 21.6209 19.869C20.6383 19.4757 19.8146 18.9347 19.1499 18.246C18.4833 17.5573 17.9833 16.775 17.6499 15.899C17.3166 15.023 17.1499 14.102 17.1499 13.136C17.1499 12.17 17.3166 11.2443 17.6499 10.359C17.9833 9.47367 18.4833 8.68933 19.1499 8.006C19.8166 7.32667 20.6396 6.79 21.6189 6.396C22.5983 6.002 23.7259 5.80533 25.0019 5.806C26.2933 5.806 27.4266 6.00267 28.4019 6.396C29.3773 6.78933 30.1953 7.326 30.8559 8.006C31.5226 8.68533 32.0226 9.46767 32.3559 10.353C32.6893 11.2383 32.8559 12.164 32.8559 13.13C32.8559 14.096 32.6893 15.017 32.3559 15.893C32.0226 16.769 31.5226 17.5513 30.8559 18.24C30.1893 18.9287 29.3709 19.4697 28.4009 19.863C27.4309 20.2563 26.2986 20.455 25.0039 20.459ZM22.4669 13.135C22.4669 13.7463 22.5759 14.2747 22.7939 14.72C23.0119 15.1653 23.3119 15.5057 23.6939 15.741C24.0759 15.977 24.5123 16.095 25.0029 16.095C25.4936 16.095 25.9299 15.977 26.3119 15.741C26.6939 15.505 26.9939 15.1647 27.2119 14.72C27.4299 14.2753 27.5389 13.747 27.5389 13.135C27.5389 12.5237 27.4299 11.9953 27.2119 11.55C26.9939 11.1047 26.6939 10.7643 26.3119 10.529C25.9299 10.293 25.4936 10.175 25.0029 10.175C24.5123 10.175 24.0759 10.293 23.6939 10.529C23.3119 10.765 23.0119 11.1053 22.7939 11.55C22.5759 11.9947 22.4669 12.523 22.4669 13.135ZM34.5499 15.344V6.029H39.7329V14.141C39.7329 14.7477 39.8739 15.225 40.1559 15.573C40.4379 15.921 40.8243 16.095 41.3149 16.095C41.5876 16.095 41.8603 16.0617 42.1329 15.995C42.4056 15.9283 42.6829 15.7903 42.9649 15.581C43.2469 15.3737 43.5243 15.0803 43.7969 14.701V6.029H48.9799V14.484C48.9799 14.9653 49.0526 15.2987 49.1979 15.484C49.3433 15.6693 49.5979 15.781 49.9619 15.819V20.186C49.5073 20.2767 49.0979 20.3433 48.7339 20.386C48.3699 20.4287 48.0516 20.4513 47.7789 20.454C46.9063 20.454 46.2153 20.292 45.7059 19.968C45.1966 19.644 44.8693 19.1507 44.7239 18.488L44.6149 17.977C43.9423 18.8563 43.1376 19.4897 42.2009 19.877C41.2643 20.2643 40.2049 20.4573 39.0229 20.456C37.5863 20.456 36.4816 20.0163 35.7089 19.137C34.9363 18.2577 34.5499 16.9933 34.5499 15.344ZM61.8299 10.257C60.8299 10.257 59.9206 10.366 59.1019 10.584C58.2833 10.802 57.6739 11.1657 57.2739 11.675V20.186H52.0919V6.029H56.8379V8.566C57.3473 7.602 57.9836 6.861 58.7469 6.343C59.5103 5.825 60.3196 5.566 61.1749 5.566C61.3749 5.566 61.5159 5.566 61.5979 5.566C61.6799 5.566 61.7573 5.575 61.8299 5.593V10.257ZM70.0409 20.186V11.406H68.2679V7.506H70.0409V5.947C70.0409 4.747 70.2593 3.70133 70.6959 2.81C71.1326 1.91867 71.7463 1.22767 72.5369 0.737C73.3283 0.245666 74.2513 0 75.3059 0C75.9239 0 76.5606 0.0666665 77.2159 0.2C77.8713 0.333333 78.5623 0.537999 79.2889 0.813999L78.4159 4.742C78.1253 4.63267 77.7979 4.54167 77.4339 4.469C77.0699 4.39633 76.7516 4.36 76.4789 4.36C76.0609 4.36 75.7473 4.47367 75.5379 4.701C75.3286 4.92833 75.2239 5.27833 75.2239 5.751V7.506H78.3609V11.406H75.2239V20.186H70.0409ZM79.8609 15.344V6.029H85.0439V14.141C85.0439 14.7477 85.1849 15.225 85.4669 15.573C85.7489 15.921 86.1353 16.095 86.6259 16.095C86.8986 16.095 87.1713 16.0617 87.4439 15.995C87.7166 15.9283 87.9939 15.7903 88.2759 15.581C88.5579 15.3737 88.8353 15.0803 89.1079 14.701V6.029H94.2909V14.484C94.2909 14.9653 94.3636 15.2987 94.5089 15.484C94.6543 15.6693 94.9089 15.781 95.2729 15.819V20.186C94.8183 20.2767 94.4089 20.3433 94.0449 20.386C93.6809 20.4287 93.3626 20.4513 93.0899 20.454C92.2173 20.454 91.5263 20.292 91.0169 19.968C90.5076 19.644 90.1803 19.1507 90.0349 18.488L89.9259 17.977C89.2533 18.8563 88.4486 19.4897 87.5119 19.877C86.5753 20.2643 85.5159 20.4573 84.3339 20.456C82.8973 20.456 81.7926 20.0163 81.0199 19.137C80.2473 18.2577 79.8609 16.9933 79.8609 15.344ZM97.2919 0.273H102.475V14.485C102.475 15.0123 102.589 15.417 102.816 15.699C103.043 15.981 103.377 16.122 103.816 16.122C104.034 16.122 104.27 16.0857 104.525 16.013C104.78 15.9403 105.016 15.8403 105.234 15.713L105.889 19.532C105.271 19.8227 104.575 20.05 103.802 20.214C103.029 20.378 102.295 20.46 101.602 20.46C100.22 20.46 99.1559 20.1007 98.4099 19.382C97.6639 18.6633 97.2913 17.6403 97.2919 16.313V0.273ZM106.976 0.273H112.159V14.485C112.159 15.0123 112.273 15.417 112.5 15.699C112.727 15.981 113.061 16.122 113.5 16.122C113.718 16.122 113.954 16.0857 114.209 16.013C114.464 15.9403 114.7 15.8403 114.918 15.713L115.573 19.532C114.955 19.8227 114.259 20.05 113.486 20.214C112.713 20.378 111.979 20.46 111.286 20.46C109.904 20.46 108.84 20.1007 108.094 19.382C107.348 18.6633 106.975 17.6403 106.976 16.313V0.273ZM115.732 21.632C116.15 21.7773 116.536 21.891 116.891 21.973C117.246 22.055 117.568 22.096 117.859 22.096C118.241 22.096 118.559 22.0293 118.814 21.896C119.069 21.7627 119.269 21.5543 119.414 21.271C119.559 20.9903 119.65 20.649 119.687 20.247L114.477 6.034H119.796L122.524 14.978L124.734 6.034H129.562L124.706 21.949C124.433 22.8677 123.988 23.6737 123.369 24.367C122.75 25.0603 122.014 25.6017 121.159 25.991C120.304 26.3797 119.386 26.574 118.404 26.574C117.949 26.574 117.499 26.533 117.054 26.451C116.609 26.369 116.168 26.2357 115.731 26.051L115.732 21.632ZM1.54494 44.583C1.54494 43.1877 1.8116 41.94 2.34494 40.84C2.87827 39.74 3.61927 38.8733 4.56794 38.24C5.51327 37.6053 6.59527 37.288 7.81394 37.288C8.74127 37.288 9.59594 37.5017 10.3779 37.929C11.1599 38.3563 11.7509 38.9427 12.1509 39.688V31.748H17.3339V45.933C17.3339 46.4243 17.4066 46.7653 17.5519 46.956C17.6973 47.1467 17.9519 47.2603 18.3159 47.297V51.662C17.4246 51.844 16.6973 51.935 16.1339 51.935C15.2613 51.935 14.5703 51.7713 14.0609 51.444C13.5516 51.1167 13.2243 50.6167 13.0789 49.944L12.9699 49.426C12.4786 50.2987 11.8149 50.935 10.9789 51.335C10.1429 51.735 9.25194 51.935 8.30594 51.935C7.32394 51.935 6.41927 51.756 5.59194 51.398C4.7646 51.04 4.04627 50.5347 3.43694 49.882C2.82761 49.2293 2.36094 48.4513 2.03694 47.548C1.71294 46.6447 1.54894 45.6563 1.54494 44.583ZM12.1839 46.155V43.693C12.0199 43.293 11.7973 42.9393 11.5159 42.632C11.2346 42.3247 10.9209 42.0847 10.5749 41.912C10.2296 41.7373 9.87494 41.65 9.51094 41.65C9.12894 41.65 8.77894 41.7287 8.46094 41.886C8.14294 42.0433 7.86561 42.2617 7.62894 42.541C7.39227 42.8203 7.21027 43.1433 7.08294 43.51C6.9556 43.8767 6.89194 44.2693 6.89194 44.688C6.89194 45.1247 6.9586 45.5177 7.09194 45.867C7.22527 46.2163 7.42061 46.5163 7.67794 46.767C7.93261 47.0203 8.2326 47.2167 8.57794 47.356C8.92327 47.4953 9.30527 47.565 9.72394 47.565C9.9786 47.565 10.2149 47.5343 10.4329 47.473C10.6509 47.4117 10.8599 47.3243 11.0599 47.211C11.2599 47.0977 11.4553 46.9493 11.6459 46.766C11.8366 46.5827 12.0166 46.379 12.1839 46.155ZM27.5149 51.934C26.2603 51.934 25.1419 51.7413 24.1599 51.356C23.1779 50.9707 22.3546 50.447 21.6899 49.785C21.0233 49.1223 20.5186 48.361 20.1759 47.501C19.8333 46.641 19.6606 45.7363 19.6579 44.787C19.6579 43.4297 19.9579 42.184 20.5579 41.05C21.1579 39.916 22.0399 39.005 23.2039 38.317C24.3679 37.6297 25.8046 37.286 27.5139 37.286C29.2233 37.286 30.6599 37.6263 31.8239 38.307C32.9879 38.9877 33.8699 39.8833 34.4699 40.994C35.0699 42.1047 35.3699 43.3137 35.3699 44.621C35.3699 44.8877 35.3563 45.161 35.3289 45.441C35.3016 45.721 35.2683 45.9673 35.2289 46.18H25.1679C25.2046 46.6633 25.3456 47.056 25.5909 47.358C25.8363 47.66 26.1453 47.88 26.5179 48.018C26.8906 48.156 27.2769 48.225 27.6769 48.225C28.2409 48.225 28.7743 48.0977 29.2769 47.843C29.7796 47.5883 30.1129 47.2337 30.2769 46.779L34.6689 48.034C34.2869 48.798 33.7536 49.471 33.0689 50.053C32.3843 50.635 31.5779 51.094 30.6499 51.43C29.7233 51.766 28.6789 51.934 27.5149 51.934ZM25.0599 43.068H29.8059C29.7513 42.624 29.6179 42.2483 29.4059 41.941C29.1939 41.6337 28.9213 41.3947 28.5879 41.224C28.2546 41.0533 27.8683 40.968 27.4289 40.968C26.9896 40.968 26.6033 41.0533 26.2699 41.224C25.9366 41.3947 25.6639 41.6337 25.4519 41.941C25.2399 42.2483 25.1089 42.6243 25.0589 43.069L25.0599 43.068ZM44.1499 51.934C42.8766 51.934 41.7536 51.7373 40.7809 51.344C39.8083 50.9507 38.9853 50.4097 38.3119 49.721C37.6393 49.0323 37.1299 48.25 36.7839 47.374C36.4379 46.498 36.2666 45.5753 36.2699 44.606C36.2699 43.318 36.5746 42.1153 37.1839 40.998C37.7933 39.8807 38.6843 38.9807 39.8569 38.298C41.0296 37.618 42.4629 37.278 44.1569 37.278C45.8843 37.278 47.3393 37.6417 48.5219 38.369C49.7046 39.0963 50.5866 40.033 51.1679 41.179L46.1209 42.707C45.8843 42.3617 45.5979 42.098 45.2619 41.916C44.9259 41.734 44.5486 41.643 44.1299 41.643C43.6573 41.643 43.2299 41.761 42.8479 41.997C42.4659 42.233 42.1613 42.569 41.9339 43.005C41.7066 43.4417 41.5929 43.975 41.5929 44.605C41.5929 45.2163 41.7066 45.7447 41.9339 46.19C42.1613 46.6353 42.4659 46.9757 42.8479 47.211C43.2299 47.447 43.6573 47.565 44.1299 47.565C44.4206 47.565 44.6843 47.524 44.9209 47.442C45.1576 47.36 45.3803 47.2373 45.5889 47.074C45.7983 46.91 45.9756 46.719 46.1209 46.501L51.1679 48.029C50.7859 48.793 50.2629 49.466 49.5989 50.048C48.9349 50.63 48.1519 51.0907 47.2499 51.43C46.3499 51.766 45.3166 51.934 44.1499 51.934ZM59.7259 51.934C58.4713 51.934 57.3529 51.7413 56.3709 51.356C55.3889 50.9707 54.5659 50.4467 53.9019 49.784C53.2353 49.1213 52.7306 48.36 52.3879 47.5C52.0453 46.64 51.8726 45.7353 51.8699 44.786C51.8699 43.4287 52.1699 42.183 52.7699 41.049C53.3699 39.915 54.2519 39.004 55.4159 38.316C56.5799 37.6287 58.0166 37.285 59.7259 37.285C61.4353 37.285 62.8733 37.6253 64.0399 38.306C65.2039 38.9867 66.0859 39.8823 66.6859 40.993C67.2859 42.1037 67.5859 43.3127 67.5859 44.62C67.5859 44.8867 67.5723 45.16 67.5449 45.44C67.5176 45.72 67.4843 45.9663 67.4449 46.179H57.3839C57.4206 46.6623 57.5616 47.055 57.8069 47.357C58.0523 47.659 58.3613 47.879 58.7339 48.017C59.1066 48.155 59.4929 48.224 59.8929 48.224C60.4569 48.224 60.9903 48.0967 61.4929 47.842C61.9956 47.5873 62.3289 47.2327 62.4929 46.778L66.8849 48.033C66.5029 48.797 65.9696 49.47 65.2849 50.052C64.6003 50.634 63.7956 51.0933 62.8709 51.43C61.9409 51.766 60.8939 51.934 59.7299 51.934H59.7259ZM57.2709 43.068H62.0169C61.9623 42.624 61.8289 42.2483 61.6169 41.941C61.4049 41.6337 61.1323 41.3947 60.7989 41.224C60.4656 41.0533 60.0793 40.968 59.6399 40.968C59.2006 40.968 58.8143 41.0533 58.4809 41.224C58.1476 41.3947 57.8749 41.6337 57.6629 41.941C57.4509 42.2483 57.3216 42.6243 57.2749 43.069L57.2709 43.068ZM83.7039 51.661H78.5249V43.783C78.5249 43.091 78.3659 42.591 78.0479 42.283C77.7299 41.975 77.3633 41.8197 76.9479 41.817C76.6573 41.817 76.3483 41.8987 76.0209 42.062C75.6936 42.2253 75.3936 42.4533 75.1209 42.746C74.8483 43.0387 74.6299 43.3743 74.4659 43.753V51.665H69.2769V37.506H73.9419V39.646C74.2873 39.1273 74.7236 38.694 75.2509 38.346C75.7783 37.998 76.3876 37.7343 77.0789 37.555C77.7703 37.3763 78.5249 37.287 79.3429 37.287C80.3249 37.287 81.1069 37.457 81.6889 37.797C82.2709 38.137 82.7073 38.5733 82.9979 39.106C83.2886 39.6393 83.4796 40.198 83.5709 40.782C83.6623 41.366 83.7076 41.8993 83.7069 42.382L83.7039 51.661ZM96.2789 50.843C95.8063 51.043 95.3016 51.2293 94.7649 51.402C94.6316 51.4453 94.4983 51.486 94.3649 51.524C94.2316 51.562 94.0959 51.5977 93.9579 51.631C93.8246 51.6637 93.6876 51.694 93.5469 51.722C93.4063 51.75 93.2683 51.7753 93.1329 51.798C92.5783 51.8887 92.0373 51.934 91.5099 51.934C90.7279 51.934 90.0096 51.805 89.3549 51.547C88.7003 51.289 88.1773 50.8613 87.7859 50.264C87.3953 49.664 87.1999 48.8577 87.1999 47.845V41.406H85.4259V37.506H87.1989V33.006H92.3819V37.506H95.1919V41.406H92.3819V45.981C92.3819 46.437 92.4819 46.757 92.6819 46.941C92.8819 47.125 93.1546 47.217 93.4999 47.217C93.7546 47.217 94.0456 47.1717 94.3729 47.081C94.7003 46.9903 95.0276 46.8813 95.3549 46.754L96.2789 50.843ZM107.49 41.732C106.49 41.732 105.581 41.841 104.762 42.059C103.943 42.277 103.334 42.6407 102.934 43.15V51.661H97.7509V37.506H102.497V40.043C103.006 39.079 103.643 38.338 104.407 37.82C105.171 37.302 105.98 37.043 106.835 37.043C107.035 37.043 107.176 37.043 107.258 37.043C107.34 37.043 107.417 37.052 107.49 37.07V41.732ZM108.15 47.406C108.15 46.4587 108.414 45.623 108.941 44.899C109.468 44.175 110.202 43.6083 111.141 43.199C112.074 42.7877 113.143 42.582 114.346 42.582C114.91 42.582 115.443 42.6273 115.946 42.718C116.449 42.8087 116.882 42.945 117.246 43.127V42.691C117.246 42.0443 117.051 41.5643 116.66 41.251C116.269 40.9377 115.636 40.781 114.76 40.781C113.96 40.781 113.21 40.9143 112.51 41.181C111.81 41.4477 111.077 41.834 110.31 42.34L108.81 39.121C109.774 38.503 110.788 38.0437 111.852 37.743C112.916 37.4423 114.057 37.2923 115.275 37.293C117.548 37.293 119.308 37.793 120.553 38.793C121.798 39.793 122.421 41.2797 122.422 43.253V45.966C122.422 46.4453 122.495 46.7787 122.64 46.966C122.785 47.1533 123.04 47.2643 123.404 47.299V51.664C122.986 51.7547 122.59 51.8213 122.217 51.864C121.844 51.9067 121.51 51.9293 121.217 51.932C120.29 51.932 119.585 51.7653 119.103 51.432C118.621 51.0987 118.307 50.603 118.162 49.945L118.053 49.427C117.416 50.2457 116.68 50.8687 115.843 51.296C115.006 51.7233 114.115 51.937 113.17 51.937C112.225 51.937 111.37 51.7403 110.606 51.347C109.842 50.9537 109.242 50.413 108.806 49.725C108.369 49.035 108.15 48.262 108.15 47.406ZM116.55 47.711C116.75 47.5737 116.914 47.4233 117.041 47.26C117.168 47.0967 117.232 46.93 117.232 46.76V45.748C116.941 45.6447 116.608 45.5587 116.232 45.49C115.856 45.4213 115.523 45.388 115.232 45.39C114.614 45.39 114.091 45.536 113.663 45.828C113.235 46.12 113.021 46.4897 113.022 46.937C113.022 47.1777 113.095 47.3967 113.24 47.594C113.385 47.7913 113.585 47.946 113.84 48.058C114.095 48.17 114.386 48.226 114.713 48.226C115.022 48.226 115.345 48.1787 115.681 48.084C116.017 47.9893 116.307 47.8633 116.55 47.706V47.711ZM125.17 31.75H130.35V45.96C130.35 46.4873 130.464 46.892 130.691 47.174C130.918 47.456 131.252 47.597 131.691 47.597C131.909 47.597 132.145 47.5607 132.4 47.488C132.655 47.4153 132.891 47.3153 133.109 47.188L133.764 51.006C133.146 51.2967 132.45 51.524 131.677 51.688C130.904 51.852 130.17 51.934 129.477 51.934C128.095 51.934 127.031 51.575 126.285 50.857C125.539 50.139 125.166 49.116 125.167 47.788L125.17 31.75ZM134.963 51.663V37.313H140.15V51.661L134.963 51.663ZM134.963 36.114V31.748H140.15V36.113L134.963 36.114ZM142.057 48.606L148.604 41.05H142.466V37.506H154.005V40.561L147.485 48.117H154.25V51.663H142.057V48.606ZM163.116 51.934C161.861 51.934 160.743 51.7413 159.761 51.356C158.779 50.9707 157.956 50.4467 157.292 49.784C156.625 49.1213 156.121 48.36 155.778 47.5C155.435 46.64 155.263 45.7353 155.26 44.786C155.26 43.4287 155.56 42.183 156.16 41.049C156.76 39.915 157.642 39.004 158.806 38.316C159.97 37.6287 161.407 37.285 163.116 37.285C164.825 37.285 166.262 37.6253 167.426 38.306C168.59 38.9867 169.472 39.8823 170.072 40.993C170.672 42.1037 170.972 43.3127 170.972 44.62C170.972 44.8867 170.958 45.16 170.931 45.44C170.904 45.72 170.87 45.9663 170.831 46.179H160.77C160.807 46.6623 160.948 47.055 161.193 47.357C161.438 47.659 161.747 47.879 162.12 48.017C162.493 48.155 162.879 48.224 163.279 48.224C163.843 48.224 164.376 48.0967 164.879 47.842C165.382 47.5873 165.715 47.2327 165.879 46.778L170.271 48.033C169.889 48.797 169.356 49.47 168.671 50.052C167.986 50.634 167.179 51.0933 166.25 51.43C165.324 51.766 164.279 51.934 163.116 51.934ZM160.661 43.068H165.407C165.352 42.624 165.219 42.2483 165.007 41.941C164.795 41.6337 164.522 41.3947 164.189 41.224C163.856 41.0533 163.469 40.968 163.03 40.968C162.591 40.968 162.204 41.0533 161.871 41.224C161.538 41.3947 161.265 41.6337 161.053 41.941C160.841 42.2483 160.71 42.6233 160.661 43.068ZM171.9 44.582C171.9 43.1867 172.167 41.939 172.7 40.839C173.233 39.739 173.974 38.8723 174.923 38.239C175.868 37.6043 176.95 37.287 178.169 37.287C179.096 37.287 179.951 37.5007 180.733 37.928C181.515 38.3553 182.106 38.9417 182.506 39.687V31.748H187.689V45.933C187.689 46.4243 187.762 46.7653 187.907 46.956C188.052 47.1467 188.307 47.2603 188.671 47.297V51.662C187.78 51.844 187.052 51.935 186.489 51.935C185.616 51.935 184.925 51.7713 184.416 51.444C183.907 51.1167 183.579 50.6167 183.434 49.944L183.325 49.426C182.834 50.2987 182.17 50.935 181.334 51.335C180.498 51.735 179.607 51.935 178.661 51.935C177.679 51.935 176.774 51.756 175.947 51.398C175.12 51.04 174.401 50.5347 173.792 49.882C173.183 49.2293 172.716 48.4513 172.392 47.548C172.068 46.6447 171.904 45.6563 171.899 44.583L171.9 44.582ZM182.539 46.154V43.693C182.375 43.293 182.152 42.9393 181.871 42.632C181.59 42.3247 181.276 42.0847 180.93 41.912C180.585 41.7373 180.23 41.65 179.866 41.65C179.484 41.65 179.134 41.7287 178.816 41.886C178.498 42.0433 178.221 42.2617 177.984 42.541C177.747 42.8203 177.565 43.1433 177.438 43.51C177.311 43.8767 177.247 44.2693 177.247 44.688C177.247 45.1247 177.314 45.5177 177.447 45.867C177.58 46.2163 177.776 46.5163 178.033 46.767C178.288 47.0203 178.588 47.2167 178.933 47.356C179.278 47.4953 179.66 47.565 180.079 47.565C180.334 47.565 180.57 47.5343 180.788 47.473C181.006 47.4117 181.215 47.3243 181.415 47.211C181.615 47.0977 181.811 46.9493 182.002 46.766C182.193 46.5827 182.372 46.379 182.538 46.155L182.539 46.154ZM25.4409 83.137H20.2579V75.259C20.2579 74.567 20.1169 74.067 19.8349 73.759C19.5529 73.451 19.2119 73.2957 18.8119 73.293C18.4119 73.293 17.9756 73.4793 17.5029 73.852C17.0303 74.2247 16.6846 74.7037 16.4659 75.289V83.141H11.2829V75.259C11.2829 74.567 11.1419 74.067 10.8599 73.759C10.5779 73.451 10.2369 73.2957 9.83694 73.293C9.43694 73.293 9.0006 73.4737 8.52794 73.835C8.05527 74.1963 7.7096 74.661 7.49094 75.229V83.141H2.30894V68.979H6.97394V71.121C7.48327 70.3523 8.18327 69.7667 9.07394 69.364C9.96461 68.9613 11.0193 68.7613 12.2379 68.764C13.4199 68.764 14.3109 69.0143 14.9109 69.515C15.5109 70.0157 15.9109 70.579 16.1109 71.205C16.6203 70.4363 17.3203 69.8363 18.2109 69.405C19.1016 68.9737 20.1016 68.759 21.2109 68.761C22.1563 68.761 22.9109 68.931 23.4749 69.271C24.0389 69.611 24.4639 70.049 24.7499 70.585C25.0319 71.1183 25.2183 71.677 25.3089 72.261C25.3996 72.845 25.4449 73.3783 25.4449 73.861L25.4409 83.137ZM35.0159 83.41C33.7433 83.41 32.6156 83.2133 31.6329 82.82C30.6503 82.4267 29.8273 81.8853 29.1639 81.196C28.4973 80.5073 27.9973 79.725 27.6639 78.849C27.3306 77.973 27.1639 77.052 27.1639 76.086C27.1639 75.12 27.3306 74.1943 27.6639 73.309C27.9973 72.4237 28.4973 71.6413 29.1639 70.962C29.8306 70.2827 30.6536 69.746 31.6329 69.352C32.6123 68.958 33.7399 68.7613 35.0159 68.762C36.3073 68.762 37.4406 68.9587 38.4159 69.352C39.3913 69.7453 40.2096 70.282 40.8709 70.962C41.5376 71.6413 42.0376 72.4237 42.3709 73.309C42.7043 74.1943 42.8709 75.12 42.8709 76.086C42.8709 77.052 42.7043 77.973 42.3709 78.849C42.0376 79.725 41.5376 80.5073 40.8709 81.196C40.2043 81.8847 39.3859 82.4257 38.4159 82.819C37.4459 83.2123 36.3126 83.408 35.0159 83.406V83.41ZM32.4789 76.086C32.4789 76.6973 32.5879 77.2257 32.8059 77.671C33.0239 78.1163 33.3239 78.4567 33.7059 78.692C34.0879 78.928 34.5243 79.046 35.0149 79.046C35.5056 79.046 35.9419 78.928 36.3239 78.692C36.7059 78.456 37.0059 78.1157 37.2239 77.671C37.4419 77.2263 37.5509 76.698 37.5509 76.086C37.5509 75.4747 37.4419 74.9463 37.2239 74.501C37.0059 74.0557 36.7059 73.7153 36.3239 73.48C35.9419 73.244 35.5056 73.126 35.0149 73.126C34.5243 73.126 34.0879 73.244 33.7059 73.48C33.3239 73.716 33.0239 74.0563 32.8059 74.501C32.5879 74.9457 32.4789 75.4747 32.4789 76.086ZM59.1299 83.137H53.9499V75.259C53.9499 74.567 53.7909 74.067 53.4729 73.759C53.1549 73.451 52.7883 73.2957 52.3729 73.293C52.0823 73.293 51.7733 73.3747 51.4459 73.538C51.1186 73.7013 50.8186 73.9293 50.5459 74.222C50.2733 74.5147 50.0549 74.8503 49.8909 75.229V83.141H44.6989V68.979H49.3639V71.121C49.7093 70.6023 50.1456 70.169 50.6729 69.821C51.2003 69.473 51.8096 69.2093 52.5009 69.03C53.1923 68.8513 53.9469 68.762 54.7649 68.762C55.7469 68.762 56.5289 68.932 57.1109 69.272C57.6929 69.612 58.1293 70.05 58.4199 70.586C58.7106 71.1193 58.9016 71.678 58.9929 72.262C59.0843 72.846 59.1296 73.3793 59.1289 73.862L59.1299 83.137ZM68.7049 83.41C67.4503 83.41 66.3319 83.2173 65.3499 82.832C64.3679 82.4467 63.5449 81.9227 62.8809 81.26C62.2143 80.5973 61.7096 79.836 61.3669 78.976C61.0243 78.116 60.8519 77.2113 60.8499 76.262C60.8499 74.9047 61.1499 73.659 61.7499 72.525C62.3499 71.391 63.2319 70.48 64.3959 69.792C65.5599 69.1047 66.9966 68.761 68.7059 68.761C70.4153 68.761 71.8519 69.1013 73.0159 69.782C74.1799 70.4627 75.0619 71.3583 75.6619 72.469C76.2619 73.5797 76.5619 74.7887 76.5619 76.096C76.5619 76.3627 76.5483 76.636 76.5209 76.916C76.4936 77.196 76.4603 77.4423 76.4209 77.655H66.3589C66.3956 78.1383 66.5366 78.531 66.7819 78.833C67.0273 79.135 67.3363 79.355 67.7089 79.493C68.0816 79.631 68.4679 79.7 68.8679 79.7C69.4319 79.7 69.9653 79.5727 70.4679 79.318C70.9706 79.0633 71.3039 78.7087 71.4679 78.254L75.8499 79.506C75.4679 80.27 74.9346 80.943 74.2499 81.525C73.5653 82.107 72.7626 82.5673 71.8419 82.906C70.9139 83.2393 69.8683 83.406 68.7049 83.406V83.41ZM66.2499 74.544H70.9959C70.9413 74.1 70.8079 73.7243 70.5959 73.417C70.3839 73.1097 70.1113 72.8707 69.7779 72.7C69.4446 72.5293 69.0583 72.444 68.6189 72.444C68.1796 72.444 67.7933 72.5293 67.4599 72.7C67.1266 72.8707 66.8539 73.1097 66.6419 73.417C66.4299 73.7243 66.2993 74.1 66.2499 74.544ZM77.6249 84.582C78.0429 84.7273 78.4293 84.841 78.7839 84.923C79.1386 85.005 79.4613 85.046 79.7519 85.046C80.1339 85.046 80.4523 84.9793 80.7069 84.846C80.9616 84.7127 81.1616 84.5043 81.3069 84.221C81.4523 83.9403 81.5433 83.599 81.5799 83.197L76.3699 68.979H81.6889L84.4169 77.923L86.6269 68.979H91.4499L86.5989 84.894C86.3263 85.8127 85.8806 86.6187 85.2619 87.312C84.6433 88.0053 83.9059 88.5467 83.0499 88.936C82.1953 89.3247 81.2769 89.519 80.2949 89.519C79.8403 89.519 79.3903 89.478 78.9449 89.396C78.4996 89.314 78.0586 89.1807 77.6219 88.996L77.6249 84.582ZM108.04 83.406C107.003 83.406 106.103 83.206 105.34 82.806C104.577 82.406 103.986 81.8203 103.567 81.049V88.949H98.3839V68.979H102.884V71.149C103.393 70.3797 104.027 69.7893 104.784 69.378C105.541 68.9667 106.455 68.761 107.525 68.761C108.489 68.761 109.371 68.94 110.171 69.298C110.971 69.656 111.671 70.1657 112.271 70.827C112.871 71.489 113.335 72.258 113.662 73.134C113.989 74.01 114.153 74.9767 114.153 76.034C114.153 77.4473 113.889 78.7083 113.362 79.817C112.835 80.9257 112.112 81.802 111.193 82.446C110.273 83.086 109.222 83.406 108.04 83.406ZM106.24 79.041C106.622 79.041 106.972 78.9623 107.29 78.805C107.608 78.6477 107.885 78.4293 108.122 78.15C108.359 77.8707 108.541 77.5477 108.668 77.181C108.795 76.8143 108.859 76.4227 108.859 76.006C108.859 75.5693 108.792 75.1763 108.659 74.827C108.526 74.4777 108.33 74.1777 108.073 73.927C107.818 73.6737 107.518 73.4773 107.173 73.338C106.828 73.1987 106.446 73.129 106.027 73.129C105.79 73.129 105.557 73.1587 105.327 73.218C105.097 73.2773 104.883 73.3623 104.686 73.473C104.486 73.5837 104.291 73.724 104.1 73.894C103.909 74.064 103.732 74.268 103.568 74.506V76.947C103.731 77.347 103.954 77.706 104.236 78.024C104.518 78.342 104.832 78.5927 105.177 78.776C105.522 78.9553 105.876 79.045 106.24 79.045V79.041ZM123.098 83.406C121.825 83.406 120.697 83.2093 119.715 82.816C118.733 82.4227 117.911 81.8827 117.25 81.196C116.583 80.5073 116.083 79.725 115.75 78.849C115.417 77.973 115.25 77.052 115.25 76.086C115.25 75.12 115.417 74.1943 115.75 73.309C116.083 72.4237 116.583 71.6413 117.25 70.962C117.917 70.2827 118.74 69.746 119.719 69.352C120.698 68.958 121.826 68.7613 123.102 68.762C124.393 68.762 125.527 68.9587 126.502 69.352C127.477 69.7453 128.293 70.2817 128.95 70.961C129.617 71.6403 130.117 72.4227 130.45 73.308C130.783 74.1933 130.95 75.119 130.95 76.085C130.95 77.051 130.783 77.972 130.45 78.848C130.117 79.724 129.617 80.5067 128.95 81.196C128.283 81.8847 127.465 82.4257 126.495 82.819C125.525 83.2123 124.393 83.408 123.098 83.406ZM120.561 76.082C120.561 76.6933 120.67 77.2217 120.888 77.667C121.106 78.1123 121.406 78.4527 121.788 78.688C122.17 78.924 122.606 79.042 123.097 79.042C123.588 79.042 124.024 78.924 124.406 78.688C124.788 78.452 125.088 78.1117 125.306 77.667C125.524 77.2223 125.633 76.694 125.633 76.082C125.633 75.4707 125.524 74.9423 125.306 74.497C125.088 74.0517 124.788 73.7113 124.406 73.476C124.024 73.24 123.588 73.122 123.097 73.122C122.606 73.122 122.17 73.24 121.788 73.476C121.406 73.712 121.106 74.0523 120.888 74.497C120.67 74.9417 120.561 75.471 120.561 76.085V76.082ZM142.629 82.315C142.156 82.515 141.652 82.7013 141.115 82.874C140.982 82.9173 140.848 82.958 140.715 82.996C140.582 83.034 140.446 83.0697 140.308 83.103C140.175 83.1357 140.038 83.166 139.897 83.194C139.756 83.222 139.618 83.2473 139.483 83.27C138.928 83.3607 138.387 83.406 137.86 83.406C137.078 83.406 136.36 83.277 135.705 83.019C135.05 82.761 134.527 82.3333 134.136 81.736C133.745 81.136 133.55 80.3297 133.55 79.317V72.88H131.777V68.98H133.55V64.48H138.733V68.98H141.543V72.88H138.733V77.455C138.733 77.911 138.833 78.231 139.033 78.415C139.233 78.599 139.506 78.691 139.851 78.691C140.106 78.691 140.397 78.6457 140.724 78.555C141.051 78.4643 141.379 78.3553 141.706 78.228L142.629 82.315Z" fill="white"/>
</svg>
